# xmcd
#
# Track frame offsets: 
#        187
#        22152
#        49517
#        75162
#        93350
#        114270
#        137915
#        162412
#
# Disc length: 2548 seconds
#
# Revision: 2
# Processed by: cddbd v1.5.2PL0 Copyright (c) Steve Scherf et al.
# Submitted via: ExactAudioCopy v0.95b4
#
DISCID=5909f208
DTITLE=Kenny Drew Trio - Kenny Drew Trio
DYEAR=1900
DGENRE=Jazz
TTITLE0=Caravan
TTITLE1=Come Rain Or Come Shine
TTITLE2=Ruby My Dear
TTITLE3=Weird-O
TTITLE4=Taking A Chance On Love
TTITLE5=When You Wish Upon A Star
TTITLE6=Blues For Nica
TTITLE7=It's Only A Paper Moon
EXTD=
EXTT0=
EXTT1=
EXTT2=
EXTT3=
EXTT4=
EXTT5=
EXTT6=
EXTT7=
PLAYORDER=
